<svg width="1180" height="242" viewBox="0 0 1180 242" fill="none" xmlns="http://www.w3.org/2000/svg">
<path d="M74.6597 25.0155C65.4732 24.702 60.3668 29.1809 53.1957 34.7026L43.6538 41.941L0.136012 75.2451C-0.135768 84.8305 0.0837959 95.7461 0.0834256 105.417L0.06566 166.753C2.72459 169.126 6.81351 172.068 9.69831 174.272L49.202 204.59C59.3593 212.34 64.8478 218.312 77.9825 216.75C82.3651 215.948 86.5032 213.942 90.0312 210.911C95.4635 206.336 99.0033 199.47 99.8349 191.897C100.769 184.088 98.8652 176.186 94.5519 169.976C93.3048 168.174 91.8789 166.539 90.3011 165.101C87.5171 162.55 82.4165 158.937 79.2696 156.543L57.1143 139.78C54.2358 137.596 48.8317 133.892 46.8644 130.943C42.4271 123.958 43.5294 113.372 49.7588 108.265C63.2357 97.2168 77.6589 87.4049 91.0898 76.3882C87.6863 70.9797 85.7031 65.916 84.8774 59.3074C83.6403 49.6769 85.8556 39.8887 91.0369 32.0945C86.1582 27.7214 80.8618 25.4385 74.6597 25.0155Z" fill="#0F172A"/>
<path d="M113.467 216.984C122.654 217.298 127.76 212.819 134.931 207.297L144.473 200.059L187.991 166.755C188.263 157.169 188.043 146.254 188.044 136.583L188.061 75.2469C185.403 72.8741 181.314 69.9322 178.429 67.7279L138.925 37.4103C128.768 29.6603 123.279 23.6878 110.145 25.2497C105.762 26.0519 101.624 28.0576 98.0959 31.0886C92.6636 35.664 89.1238 42.5299 88.2922 50.1034C87.3576 57.9118 89.2619 65.8138 93.5752 72.0236C94.8223 73.8257 96.2482 75.4613 97.826 76.8988C100.61 79.4502 105.711 83.0632 108.858 85.4573L131.013 102.22C133.891 104.404 139.295 108.108 141.263 111.057C145.7 118.042 144.598 128.628 138.368 133.735C124.891 144.783 110.468 154.595 97.0373 165.612C100.441 171.02 102.424 176.084 103.25 182.693C104.487 192.323 102.271 202.111 97.0902 209.905C101.969 214.279 107.265 216.562 113.467 216.984Z" fill="#0F172A"/>
<path d="M92.001 106.144C100.228 105.004 107.817 110.757 108.935 118.981C110.053 127.205 104.275 134.773 96.0424 135.867C87.8419 136.957 80.3055 131.211 79.1918 123.019C78.0781 114.828 83.8069 107.28 92.001 106.144Z" fill="#0F172A"/>
<path d="M1124.01 189.456C1115.43 189.456 1107.87 187.664 1101.34 184.08C1094.8 180.368 1089.68 175.056 1085.97 168.144C1082.25 161.232 1080.27 152.784 1080.01 142.8H1083.66V186H1059.26V45.84H1090V117.072L1082.7 126.288C1083.08 115.664 1085.07 106.768 1088.65 99.6C1092.37 92.304 1097.43 86.864 1103.83 83.28C1110.24 79.568 1117.54 77.712 1125.74 77.712C1132.91 77.712 1139.38 79.056 1145.14 81.744C1151.03 84.304 1156.03 88.016 1160.13 92.88C1164.23 97.616 1167.36 103.248 1169.54 109.776C1171.85 116.304 1173 123.408 1173 131.088V135.312C1173 142.992 1171.85 150.096 1169.54 156.624C1167.36 163.152 1164.1 168.912 1159.74 173.904C1155.52 178.768 1150.39 182.608 1144.37 185.424C1138.35 188.112 1131.56 189.456 1124.01 189.456ZM1115.94 163.728C1121.19 163.728 1125.74 162.448 1129.58 159.888C1133.55 157.328 1136.62 153.744 1138.8 149.136C1140.98 144.4 1142.07 139.088 1142.07 133.2C1142.07 127.184 1140.98 121.936 1138.8 117.456C1136.62 112.976 1133.55 109.52 1129.58 107.088C1125.74 104.528 1121.19 103.248 1115.94 103.248C1111.33 103.248 1106.97 104.336 1102.87 106.512C1098.77 108.688 1095.44 111.824 1092.88 115.92C1090.45 119.888 1089.23 124.752 1089.23 130.512V137.616C1089.23 143.12 1090.51 147.856 1093.07 151.824C1095.76 155.664 1099.16 158.608 1103.26 160.656C1107.36 162.704 1111.58 163.728 1115.94 163.728Z" fill="#0F172A"/>
<path d="M967.127 189.264C954.959 189.264 945.608 185.36 939.076 177.552C932.543 169.616 929.277 157.712 929.277 141.84V80.784H960.018V143.376C960.018 149.008 961.619 153.488 964.821 156.816C968.023 160.144 972.314 161.808 977.694 161.808C983.202 161.808 987.685 160.08 991.143 156.624C994.601 153.168 996.331 148.496 996.331 142.608V80.784H1027.07V186H1002.67V141.648H1004.78C1004.78 152.272 1003.38 161.168 1000.56 168.336C997.868 175.376 993.833 180.624 988.453 184.08C983.074 187.536 976.413 189.264 968.472 189.264H967.127Z" fill="#0F172A"/>
<path d="M866.488 186V45.84H897.998V186H866.488ZM775.803 186V45.84H807.312V186H775.803ZM801.741 129.36V101.712H872.06V129.36H801.741Z" fill="#0F172A"/>
<path d="M716.07 186V45.84H738.741V186H716.07ZM702.429 63.12V45.84H738.741V63.12H702.429Z" fill="#0F172A"/>
<path d="M637.833 189.456C628.867 189.456 621.054 187.92 614.393 184.848C607.733 181.776 602.289 177.744 598.062 172.752C593.835 167.632 590.633 161.936 588.456 155.664C586.406 149.264 585.381 142.736 585.381 136.08V132.432C585.381 125.648 586.406 119.12 588.456 112.848C590.633 106.448 593.835 100.752 598.062 95.76C602.289 90.64 607.604 86.608 614.009 83.664C620.541 80.592 628.098 79.056 636.68 79.056C647.824 79.056 657.11 81.488 664.539 86.352C671.968 91.216 677.54 97.552 681.254 105.36C684.969 113.04 686.826 121.36 686.826 130.32V139.344H594.988V124.176H671.648L665.5 131.856C665.5 124.944 664.411 118.992 662.233 114C660.056 108.88 656.854 104.976 652.627 102.288C648.4 99.472 643.084 98.064 636.68 98.064C630.02 98.064 624.448 99.6 619.965 102.672C615.482 105.744 612.152 109.968 609.974 115.344C607.797 120.72 606.708 127.056 606.708 134.352C606.708 141.264 607.797 147.472 609.974 152.976C612.152 158.352 615.546 162.64 620.157 165.84C624.768 168.912 630.66 170.448 637.833 170.448C645.006 170.448 650.898 168.912 655.509 165.84C660.12 162.64 662.938 158.928 663.963 154.704H684.905C683.496 161.744 680.614 167.888 676.259 173.136C672.032 178.384 666.652 182.416 660.12 185.232C653.588 188.048 646.159 189.456 637.833 189.456Z" fill="#0F172A"/>
<path d="M498.474 189.456C491.045 189.456 484.257 188.112 478.108 185.424C472.088 182.736 466.773 178.96 462.162 174.096C457.679 169.232 454.22 163.6 451.787 157.2C449.353 150.8 448.136 143.824 448.136 136.272V132.624C448.136 125.2 449.289 118.288 451.595 111.888C454.028 105.36 457.422 99.664 461.777 94.8C466.132 89.936 471.32 86.16 477.34 83.472C483.488 80.656 490.277 79.248 497.706 79.248C505.647 79.248 512.756 80.976 519.032 84.432C525.436 87.76 530.56 92.944 534.403 99.984C538.373 106.896 540.551 115.728 540.935 126.48L533.25 115.92V45.84H555.729V186H537.861V141.072H542.856C542.472 152.208 540.166 161.36 535.94 168.528C531.841 175.696 526.525 181.008 519.993 184.464C513.46 187.792 506.288 189.456 498.474 189.456ZM502.701 170.064C508.465 170.064 513.652 168.784 518.264 166.224C523.003 163.664 526.781 159.952 529.599 155.088C532.545 150.096 534.018 144.272 534.018 137.616V129.36C534.018 122.832 532.545 117.264 529.599 112.656C526.653 108.048 522.811 104.528 518.071 102.096C513.332 99.664 508.145 98.448 502.509 98.448C496.233 98.448 490.661 99.984 485.794 103.056C481.054 106 477.34 110.16 474.65 115.536C471.96 120.912 470.615 127.184 470.615 134.352C470.615 141.648 471.96 147.984 474.65 153.36C477.468 158.736 481.311 162.896 486.178 165.84C491.045 168.656 496.553 170.064 502.701 170.064Z" fill="#0F172A"/>
<path d="M402.399 186V155.088H398.748V120.144C398.748 113.744 397.083 108.88 393.753 105.552C390.423 102.224 385.491 100.56 378.959 100.56C375.373 100.56 371.402 100.624 367.047 100.752C362.692 100.88 358.401 101.072 354.174 101.328C350.075 101.456 346.425 101.648 343.223 101.904V82.512C346.041 82.256 349.115 82.064 352.445 81.936C355.903 81.68 359.426 81.488 363.012 81.36C366.727 81.232 370.249 81.168 373.579 81.168C384.082 81.168 392.792 82.512 399.709 85.2C406.626 87.888 411.749 92.176 415.079 98.064C418.538 103.824 420.267 111.568 420.267 121.296V186H402.399ZM368.776 188.688C361.219 188.688 354.623 187.408 348.987 184.848C343.351 182.16 338.996 178.32 335.922 173.328C332.848 168.208 331.311 162.128 331.311 155.088C331.311 147.664 333.04 141.52 336.498 136.656C340.085 131.792 345.144 128.144 351.677 125.712C358.209 123.28 366.022 122.064 375.116 122.064H401.054V136.848H374.54C367.751 136.848 362.564 138.512 358.977 141.84C355.391 145.04 353.598 149.264 353.598 154.512C353.598 159.76 355.391 163.984 358.977 167.184C362.564 170.256 367.751 171.792 374.54 171.792C378.511 171.792 382.289 171.088 385.876 169.68C389.462 168.144 392.408 165.648 394.714 162.192C397.147 158.736 398.492 153.872 398.748 147.6L404.512 155.088C403.872 162.384 402.079 168.528 399.133 173.52C396.315 178.384 392.344 182.16 387.221 184.848C382.225 187.408 376.077 188.688 368.776 188.688Z" fill="#0F172A"/>
<path d="M234.174 140.112V119.952H263.378C269.526 119.952 274.586 118.8 278.556 116.496C282.655 114.064 285.793 110.8 287.971 106.704C290.148 102.48 291.237 97.744 291.237 92.496C291.237 87.12 290.148 82.384 287.971 78.288C285.793 74.064 282.655 70.8 278.556 68.496C274.586 66.192 269.526 65.04 263.378 65.04H234.174V44.88H260.688C272.344 44.88 282.143 46.8 290.084 50.64C298.154 54.352 304.238 59.664 308.336 66.576C312.563 73.36 314.677 81.488 314.677 90.96V94.032C314.677 103.376 312.563 111.504 308.336 118.416C304.238 125.328 298.154 130.704 290.084 134.544C282.143 138.256 272.344 140.112 260.688 140.112H234.174ZM214.961 186V44.88H238.017V186H214.961Z" fill="#0F172A"/>
</svg>
