<svg width="188" height="192" viewBox="0 0 188 192" fill="none" xmlns="http://www.w3.org/2000/svg">
<path d="M74.6092 0.0155116C65.429 -0.297955 60.326 4.1809 53.1598 9.70257L43.6243 16.941L0.13592 50.2451C-0.135676 59.8305 0.0837392 70.7461 0.0833692 80.4169L0.0656156 141.753C2.72275 144.126 6.80891 147.068 9.69175 149.272L49.1687 179.59C59.3192 187.34 64.804 193.312 77.9298 191.75C82.3094 190.948 86.4448 188.942 89.9704 185.911C95.399 181.336 98.9364 174.47 99.7675 166.897C100.701 159.088 98.7984 151.186 94.488 144.976C93.2417 143.174 91.8168 141.539 90.2401 140.101C87.4579 137.55 82.3609 133.937 79.216 131.543L57.0757 114.78C54.1992 112.596 48.7987 108.892 46.8328 105.943C42.3984 98.9581 43.5 88.3722 49.7252 83.2652C63.1929 72.2168 77.6064 62.4049 91.0283 51.3882C87.627 45.9797 85.6452 40.916 84.82 34.3074C83.5838 24.6769 85.7976 14.8887 90.9754 7.09451C86.0999 2.72139 80.8071 0.438462 74.6092 0.0155116Z" fill="#0F172A"/>
<path d="M113.391 191.984C122.571 192.298 127.674 187.819 134.84 182.297L144.376 175.059L187.864 141.755C188.136 132.169 187.916 121.254 187.917 111.583L187.934 50.2469C185.277 47.8741 181.191 44.9322 178.308 42.7279L138.831 12.4103C128.681 4.66026 123.196 -1.31225 110.07 0.249671C105.691 1.05186 101.555 3.05755 98.0296 6.08856C92.601 10.664 89.0636 17.5299 88.2326 25.1034C87.2986 32.9118 89.2016 40.8138 93.512 47.0236C94.7583 48.8257 96.1832 50.4613 97.7599 51.8988C100.542 54.4502 105.639 58.0632 108.784 60.4573L130.924 77.22C133.801 79.4039 139.201 83.1076 141.167 86.0574C145.602 93.042 144.5 103.628 138.275 108.735C124.807 119.783 110.394 129.595 96.9717 140.612C100.373 146.02 102.355 151.084 103.18 157.693C104.416 167.323 102.202 177.111 97.0247 184.905C101.9 189.279 107.193 191.562 113.391 191.984Z" fill="#0F172A"/>
<path d="M91.9389 81.1441C100.16 80.0037 107.744 85.7567 108.862 93.9809C109.979 102.205 104.205 109.773 95.9775 110.867C87.7826 111.957 80.2512 106.211 79.1383 98.0194C78.0254 89.828 83.7503 82.2804 91.9389 81.1441Z" fill="#0F172A"/>
</svg>
