<svg width="958" height="145" viewBox="0 0 958 145" fill="none" xmlns="http://www.w3.org/2000/svg">
<path d="M908.431 144.576C899.855 144.576 892.303 142.784 885.775 139.2C879.247 135.488 874.127 130.176 870.415 123.264C866.703 116.352 864.719 107.904 864.463 97.92H868.111V141.12H843.727V0.959961H874.447V72.192L867.151 81.408C867.535 70.784 869.519 61.888 873.103 54.72C876.815 47.424 881.871 41.984 888.271 38.4C894.671 34.688 901.967 32.832 910.159 32.832C917.327 32.832 923.791 34.176 929.551 36.864C935.439 39.424 940.431 43.136 944.527 48C948.623 52.736 951.759 58.368 953.935 64.896C956.239 71.424 957.391 78.528 957.391 86.208V90.432C957.391 98.112 956.239 105.216 953.935 111.744C951.759 118.272 948.495 124.032 944.143 129.024C939.919 133.888 934.799 137.728 928.783 140.544C922.767 143.232 915.983 144.576 908.431 144.576ZM900.367 118.848C905.615 118.848 910.159 117.568 913.999 115.008C917.967 112.448 921.039 108.864 923.215 104.256C925.391 99.52 926.479 94.208 926.479 88.32C926.479 82.304 925.391 77.056 923.215 72.576C921.039 68.096 917.967 64.64 913.999 62.208C910.159 59.648 905.615 58.368 900.367 58.368C895.759 58.368 891.407 59.456 887.311 61.632C883.215 63.808 879.887 66.944 877.327 71.04C874.895 75.008 873.679 79.872 873.679 85.632V92.736C873.679 98.24 874.959 102.976 877.519 106.944C880.207 110.784 883.599 113.728 887.695 115.776C891.791 117.824 896.015 118.848 900.367 118.848Z" fill="white"/>
<path d="M751.658 144.384C739.498 144.384 730.154 140.48 723.626 132.672C717.098 124.736 713.833 112.832 713.833 96.9601V35.9041H744.554V98.496C744.554 104.128 746.154 108.608 749.354 111.936C752.554 115.264 756.842 116.928 762.218 116.928C767.722 116.928 772.202 115.2 775.658 111.744C779.114 108.288 780.842 103.616 780.842 97.7281V35.9041H811.562V141.12H787.178V96.7681H789.29C789.29 107.392 787.882 116.288 785.066 123.456C782.378 130.496 778.346 135.744 772.97 139.2C767.594 142.656 760.938 144.384 753.002 144.384H751.658Z" fill="white"/>
<path d="M651.087 141.12V0.959961H682.575V141.12H651.087ZM560.463 141.12V0.959961H591.951V141.12H560.463ZM586.383 84.48V56.832H656.655V84.48H586.383Z" fill="white"/>
<path d="M500.77 141.12V0.959961H523.426V141.12H500.77ZM487.138 18.24V0.959961H523.426V18.24H487.138Z" fill="white"/>
<path d="M422.586 144.576C413.626 144.576 405.818 143.04 399.162 139.968C392.506 136.896 387.066 132.864 382.842 127.872C378.618 122.752 375.418 117.056 373.242 110.784C371.194 104.384 370.17 97.856 370.17 91.2V87.552C370.17 80.768 371.194 74.24 373.242 67.968C375.418 61.568 378.618 55.872 382.842 50.88C387.066 45.76 392.378 41.728 398.778 38.784C405.306 35.712 412.858 34.176 421.434 34.176C432.57 34.176 441.85 36.608 449.274 41.472C456.698 46.336 462.266 52.672 465.978 60.48C469.69 68.16 471.546 76.48 471.546 85.44V94.464H379.77V79.296H456.378L450.234 86.976C450.234 80.064 449.146 74.112 446.97 69.12C444.794 64 441.594 60.096 437.37 57.408C433.146 54.592 427.834 53.184 421.434 53.184C414.778 53.184 409.21 54.72 404.73 57.792C400.25 60.864 396.922 65.088 394.746 70.464C392.57 75.84 391.482 82.176 391.482 89.472C391.482 96.384 392.57 102.592 394.746 108.096C396.922 113.472 400.314 117.76 404.922 120.96C409.53 124.032 415.418 125.568 422.586 125.568C429.754 125.568 435.642 124.032 440.25 120.96C444.858 117.76 447.674 114.048 448.698 109.824H469.626C468.218 116.864 465.338 123.008 460.986 128.256C456.762 133.504 451.386 137.536 444.858 140.352C438.33 143.168 430.906 144.576 422.586 144.576Z" fill="white"/>
<path d="M283.321 144.576C275.897 144.576 269.113 143.232 262.969 140.544C256.953 137.856 251.641 134.08 247.033 129.216C242.553 124.352 239.097 118.72 236.665 112.32C234.233 105.92 233.017 98.944 233.017 91.392V87.744C233.017 80.32 234.169 73.408 236.473 67.008C238.905 60.48 242.297 54.784 246.649 49.92C251.001 45.056 256.185 41.28 262.201 38.592C268.345 35.776 275.129 34.368 282.553 34.368C290.489 34.368 297.593 36.096 303.865 39.552C310.265 42.88 315.385 48.064 319.225 55.104C323.193 62.016 325.369 70.848 325.753 81.6L318.073 71.04V0.959961H340.537V141.12H322.681V96.192H327.673C327.289 107.328 324.985 116.48 320.761 123.648C316.665 130.816 311.353 136.128 304.825 139.584C298.297 142.912 291.129 144.576 283.321 144.576ZM287.545 125.184C293.305 125.184 298.489 123.904 303.097 121.344C307.833 118.784 311.609 115.072 314.425 110.208C317.369 105.216 318.841 99.392 318.841 92.736V84.48C318.841 77.952 317.369 72.384 314.425 67.776C311.481 63.168 307.641 59.648 302.905 57.216C298.169 54.784 292.985 53.568 287.353 53.568C281.081 53.568 275.513 55.104 270.649 58.176C265.913 61.12 262.201 65.28 259.513 70.656C256.825 76.032 255.481 82.304 255.481 89.472C255.481 96.768 256.825 103.104 259.513 108.48C262.329 113.856 266.169 118.016 271.033 120.96C275.897 123.776 281.401 125.184 287.545 125.184Z" fill="white"/>
<path d="M187.311 141.12V110.208H183.663V75.264C183.663 68.864 181.999 64 178.671 60.672C175.343 57.344 170.415 55.68 163.887 55.68C160.303 55.68 156.335 55.744 151.983 55.872C147.631 56 143.343 56.192 139.119 56.448C135.023 56.576 131.375 56.768 128.175 57.024V37.632C130.991 37.376 134.063 37.184 137.391 37.056C140.847 36.8 144.367 36.608 147.951 36.48C151.663 36.352 155.183 36.288 158.511 36.288C169.007 36.288 177.711 37.632 184.623 40.32C191.535 43.008 196.655 47.296 199.983 53.184C203.439 58.944 205.167 66.688 205.167 76.416V141.12H187.311ZM153.711 143.808C146.159 143.808 139.567 142.528 133.935 139.968C128.303 137.28 123.951 133.44 120.879 128.448C117.807 123.328 116.271 117.248 116.271 110.208C116.271 102.784 117.999 96.64 121.455 91.776C125.039 86.912 130.095 83.264 136.623 80.832C143.151 78.4 150.959 77.184 160.047 77.184H185.967V91.968H159.471C152.687 91.968 147.503 93.632 143.919 96.96C140.335 100.16 138.543 104.384 138.543 109.632C138.543 114.88 140.335 119.104 143.919 122.304C147.503 125.376 152.687 126.912 159.471 126.912C163.439 126.912 167.215 126.208 170.799 124.8C174.383 123.264 177.327 120.768 179.631 117.312C182.063 113.856 183.407 108.992 183.663 102.72L189.423 110.208C188.783 117.504 186.991 123.648 184.047 128.64C181.231 133.504 177.263 137.28 172.143 139.968C167.151 142.528 161.007 143.808 153.711 143.808Z" fill="white"/>
<path d="M19.2 95.232V75.072H48.384C54.528 75.072 59.584 73.92 63.552 71.616C67.648 69.184 70.784 65.92 72.96 61.824C75.136 57.6 76.224 52.864 76.224 47.616C76.224 42.24 75.136 37.504 72.96 33.408C70.784 29.184 67.648 25.92 63.552 23.616C59.584 21.312 54.528 20.16 48.384 20.16H19.2V0H45.696C57.344 0 67.136 1.92 75.072 5.75999C83.136 9.47199 89.216 14.784 93.312 21.696C97.536 28.48 99.648 36.608 99.648 46.08V49.152C99.648 58.496 97.536 66.624 93.312 73.536C89.216 80.448 83.136 85.824 75.072 89.664C67.136 93.376 57.344 95.232 45.696 95.232H19.2ZM0 141.12V0H23.04V141.12H0Z" fill="white"/>
</svg>
