<svg width="984" height="436" viewBox="0 0 984 436" fill="none" xmlns="http://www.w3.org/2000/svg">
<path d="M471.659 0.0165252C461.887 -0.317423 456.455 4.45408 448.826 10.3365L438.676 18.0479L392.382 53.528C392.093 63.7398 392.326 75.3686 392.326 85.6713L392.307 151.015C395.136 153.543 399.485 156.677 402.554 159.025L444.578 191.324C455.383 199.58 461.222 205.943 475.194 204.279C479.856 203.425 484.258 201.288 488.011 198.059C493.79 193.184 497.556 185.87 498.44 177.801C499.435 169.483 497.409 161.065 492.82 154.449C491.494 152.529 489.977 150.787 488.298 149.255C485.337 146.537 479.911 142.688 476.563 140.138L452.995 122.28C449.933 119.953 444.184 116.007 442.091 112.865C437.371 105.424 438.543 94.1464 445.17 88.7056C459.507 76.9354 474.85 66.4824 489.137 54.7458C485.517 48.984 483.407 43.5894 482.529 36.549C481.213 26.2893 483.569 15.8615 489.081 7.55806C483.891 2.8992 478.257 0.467111 471.659 0.0165252Z" fill="#3B82F6"/>
<path d="M512.942 204.529C522.715 204.863 528.147 200.091 535.775 194.209L545.926 186.497L592.22 151.017C592.509 140.805 592.275 129.177 592.276 118.874L592.295 53.53C589.466 51.0021 585.116 47.868 582.047 45.5197L540.024 13.2212C529.219 4.96476 523.38 -1.39798 509.408 0.26599C504.746 1.1206 500.343 3.25734 496.59 6.48639C490.812 11.3608 487.046 18.6753 486.161 26.7437C485.167 35.0622 487.193 43.4805 491.781 50.0961C493.108 52.016 494.625 53.7584 496.303 55.2898C499.265 58.0079 504.691 61.857 508.038 64.4075L531.607 82.2655C534.669 84.5921 540.418 88.5378 542.511 91.6804C547.231 99.1212 546.058 110.399 539.432 115.839C525.095 127.61 509.752 138.063 495.464 149.799C499.085 155.561 501.195 160.956 502.073 167.996C503.389 178.256 501.032 188.684 495.521 196.987C500.711 201.646 506.345 204.078 512.942 204.529Z" fill="#10B981"/>
<path d="M490.107 86.446C498.858 85.231 506.932 91.36 508.121 100.121C509.311 108.883 503.164 116.945 494.406 118.111C485.682 119.272 477.665 113.151 476.48 104.424C475.296 95.6973 481.39 87.6565 490.107 86.446Z" fill="#0F172A"/>
<path d="M927.825 384C919.243 384 911.686 382.205 905.154 378.616C898.622 374.899 893.499 369.58 889.785 362.658C886.07 355.736 884.085 347.276 883.829 337.278H887.479V380.539H863.08V240.18H893.819V311.513L886.518 320.742C886.903 310.103 888.888 301.195 892.474 294.017C896.189 286.71 901.248 281.262 907.652 277.673C914.056 273.956 921.357 272.097 929.554 272.097C936.726 272.097 943.195 273.443 948.958 276.135C954.85 278.699 959.845 282.416 963.944 287.287C968.042 292.03 971.18 297.67 973.358 304.207C975.663 310.744 976.816 317.858 976.816 325.549V329.779C976.816 337.47 975.663 344.584 973.358 351.121C971.18 357.659 967.914 363.427 963.559 368.426C959.333 373.297 954.209 377.142 948.19 379.962C942.17 382.654 935.382 384 927.825 384ZM919.756 358.236C925.007 358.236 929.554 356.954 933.396 354.39C937.367 351.826 940.441 348.237 942.618 343.623C944.796 338.88 945.884 333.561 945.884 327.664C945.884 321.64 944.796 316.384 942.618 311.898C940.441 307.412 937.367 303.951 933.396 301.515C929.554 298.952 925.007 297.67 919.756 297.67C915.145 297.67 910.79 298.759 906.691 300.938C902.593 303.117 899.263 306.258 896.701 310.36C894.267 314.333 893.051 319.204 893.051 324.972V332.086C893.051 337.598 894.331 342.341 896.893 346.315C899.583 350.16 902.977 353.108 907.076 355.159C911.174 357.21 915.401 358.236 919.756 358.236Z" fill="#3B82F6"/>
<path d="M770.951 383.808C758.783 383.808 749.433 379.898 742.901 372.079C736.369 364.132 733.103 352.211 733.103 336.316V275.174H763.843V337.855C763.843 343.495 765.444 347.981 768.646 351.314C771.848 354.646 776.138 356.313 781.518 356.313C787.025 356.313 791.508 354.582 794.966 351.121C798.425 347.661 800.154 342.982 800.154 337.086V275.174H830.893V380.539H806.494V336.124H808.607C808.607 346.763 807.198 355.672 804.38 362.85C801.691 369.9 797.656 375.155 792.277 378.616C786.897 382.077 780.237 383.808 772.296 383.808H770.951Z" fill="#3B82F6"/>
<path d="M670.317 380.539V240.18H701.825V380.539H670.317ZM579.635 380.539V240.18H611.143V380.539H579.635ZM605.572 323.819V296.132H675.888V323.819H605.572Z" fill="#3B82F6"/>
<path d="M519.905 380.539V240.18H542.575V380.539H519.905ZM506.264 257.485V240.18H542.575V257.485H506.264Z" fill="#0F172A"/>
<path d="M441.671 384C432.705 384 424.892 382.462 418.232 379.385C411.572 376.309 406.128 372.271 401.901 367.272C397.675 362.145 394.473 356.441 392.295 350.16C390.246 343.751 389.221 337.214 389.221 330.548V326.895C389.221 320.101 390.246 313.564 392.295 307.283C394.473 300.874 397.675 295.17 401.901 290.171C406.128 285.044 411.444 281.006 417.848 278.058C424.38 274.982 431.937 273.443 440.518 273.443C451.661 273.443 460.947 275.879 468.376 280.75C475.804 285.621 481.376 291.966 485.09 299.785C488.805 307.476 490.662 315.807 490.662 324.78V333.817H398.828V318.627H475.484L469.336 326.318C469.336 319.396 468.248 313.436 466.07 308.437C463.893 303.31 460.691 299.4 456.464 296.708C452.237 293.888 446.922 292.478 440.518 292.478C433.858 292.478 428.286 294.017 423.803 297.093C419.321 300.169 415.99 304.399 413.813 309.783C411.636 315.167 410.547 321.511 410.547 328.818C410.547 335.74 411.636 341.956 413.813 347.468C415.99 352.852 419.385 357.146 423.996 360.351C428.606 363.427 434.498 364.965 441.671 364.965C448.843 364.965 454.735 363.427 459.346 360.351C463.957 357.146 466.775 353.429 467.799 349.199H488.741C487.332 356.249 484.45 362.401 480.095 367.657C475.868 372.912 470.489 376.95 463.957 379.77C457.425 382.59 449.996 384 441.671 384Z" fill="#0F172A"/>
<path d="M302.318 384C294.889 384 288.101 382.654 281.953 379.962C275.933 377.27 270.618 373.489 266.007 368.618C261.524 363.747 258.066 358.107 255.632 351.698C253.198 345.289 251.982 338.303 251.982 330.741V327.087C251.982 319.653 253.134 312.731 255.44 306.322C257.873 299.785 261.268 294.081 265.622 289.21C269.977 284.339 275.164 280.557 281.184 277.866C287.332 275.046 294.12 273.636 301.549 273.636C309.49 273.636 316.599 275.366 322.875 278.827C329.279 282.16 334.402 287.351 338.244 294.401C342.215 301.323 344.392 310.167 344.777 320.935L337.092 310.36V240.18H359.57V380.539H341.703V335.547H346.698C346.314 346.699 344.008 355.864 339.781 363.042C335.683 370.22 330.367 375.54 323.835 379.001C317.303 382.334 310.131 384 302.318 384ZM306.544 364.581C312.308 364.581 317.495 363.299 322.106 360.735C326.845 358.171 330.624 354.454 333.441 349.583C336.387 344.584 337.86 338.752 337.86 332.086V323.819C337.86 317.282 336.387 311.706 333.441 307.091C330.496 302.477 326.653 298.952 321.914 296.516C317.175 294.081 311.988 292.863 306.352 292.863C300.076 292.863 294.505 294.401 289.638 297.477C284.899 300.426 281.184 304.592 278.495 309.975C275.805 315.359 274.46 321.64 274.46 328.818C274.46 336.124 275.805 342.469 278.495 347.853C281.312 353.236 285.155 357.402 290.022 360.351C294.889 363.171 300.396 364.581 306.544 364.581Z" fill="#0F172A"/>
<path d="M206.246 380.539V349.583H202.596V314.59C202.596 308.181 200.931 303.31 197.601 299.977C194.27 296.644 189.339 294.978 182.807 294.978C179.221 294.978 175.25 295.042 170.896 295.17C166.541 295.298 162.25 295.491 158.023 295.747C153.925 295.875 150.274 296.067 147.072 296.324V276.904C149.89 276.648 152.964 276.456 156.294 276.327C159.753 276.071 163.275 275.879 166.861 275.751C170.575 275.622 174.098 275.558 177.428 275.558C187.93 275.558 196.64 276.904 203.556 279.596C210.473 282.288 215.596 286.582 218.926 292.478C222.384 298.247 224.113 306.002 224.113 315.743V380.539H206.246ZM172.625 383.231C165.068 383.231 158.472 381.949 152.836 379.385C147.201 376.694 142.846 372.848 139.772 367.849C136.698 362.722 135.161 356.633 135.161 349.583C135.161 342.149 136.89 335.996 140.348 331.125C143.934 326.254 148.994 322.601 155.526 320.166C162.058 317.73 169.871 316.512 178.965 316.512H204.901V331.317H178.388C171.6 331.317 166.413 332.984 162.826 336.316C159.24 339.521 157.447 343.751 157.447 349.006C157.447 354.262 159.24 358.492 162.826 361.696C166.413 364.773 171.6 366.311 178.388 366.311C182.359 366.311 186.137 365.606 189.724 364.196C193.31 362.658 196.256 360.158 198.561 356.697C200.995 353.236 202.34 348.366 202.596 342.085L208.359 349.583C207.719 356.89 205.926 363.042 202.98 368.041C200.162 372.912 196.192 376.694 191.068 379.385C186.073 381.949 179.925 383.231 172.625 383.231Z" fill="#0F172A"/>
<path d="M38.0281 334.586V314.397H67.2307C73.3786 314.397 78.4378 313.244 82.4083 310.937C86.5069 308.501 89.6449 305.232 91.8223 301.131C93.9997 296.901 95.0884 292.158 95.0884 286.902C95.0884 281.519 93.9997 276.776 91.8223 272.674C89.6449 268.444 86.5069 265.176 82.4083 262.868C78.4378 260.561 73.3786 259.407 67.2307 259.407H38.0281V239.219H64.541C76.1964 239.219 85.9946 241.142 93.9356 244.987C102.005 248.704 108.089 254.024 112.187 260.946C116.414 267.739 118.527 275.879 118.527 285.364V288.441C118.527 297.798 116.414 305.937 112.187 312.859C108.089 319.781 102.005 325.165 93.9356 329.01C85.9946 332.727 76.1964 334.586 64.541 334.586H38.0281ZM18.8159 380.539V239.219H41.8706V380.539H18.8159Z" fill="#0F172A"/>
</svg>
